<svg width="86" height="107" viewBox="0 0 146 107" fill="none" xmlns="http://www.w3.org/2000/svg">
<rect width="146" height="107" fill="#F5F5F5"/>
<g clip-path="url(#clip0_0_1)">
<rect width="146" height="107" fill="white"/>
<path d="M67 20C67 31.0457 58.0457 40 47 40C35.9543 40 27 31.0457 27 20C27 8.9543 35.9543 0 47 0C58.0457 0 67 8.9543 67 20Z" fill="#FF8045"/>
<path d="M64 20C64 29.3888 56.3888 37 47 37C37.6112 37 30 29.3888 30 20C30 10.6112 37.6112 3 47 3C56.3888 3 64 10.6112 64 20Z" fill="#FF8045"/>
<path d="M118 23C118 32.3888 110.389 40 101 40C91.6112 40 84 32.3888 84 23C84 13.6112 91.6112 6 101 6C110.389 6 118 13.6112 118 23Z" fill="#28EBD7"/>
<path d="M115.45 23C115.45 30.9805 108.981 37.45 101 37.45C93.0195 37.45 86.55 30.9805 86.55 23C86.55 15.0195 93.0195 8.55 101 8.55C108.981 8.55 115.45 15.0195 115.45 23Z" fill="#28EBD7"/>
<path d="M14 103.5L21 75.5L24.5 103.5H66.5L72 68H81.5L92 67L101.5 65.5L109.5 63L116 61L122.5 58.5L126.5 56L128 53.5V50L127 48L125.5 46.5L122.5 46H117L108 46.5H99H87.5H75.5L66 46L57.5 45.5L48.5 44.5L41.5 44L33.5 44.5L25.5 47.5L19.5 51.5L15 56L12 60.5L9.5 65.5L0 103.5H14Z" fill="#FF8045" stroke="#FF8045" stroke-width="3"/>
<path d="M80.5 75L77.5 103H115.5V85L124.5 103H142L129.5 64L119 68.5L110.5 71L103 73L94.5 74L87 75H80.5Z" fill="#28EBD7" stroke="#28EBD7" stroke-width="3"/>
</g>
<defs>
<clipPath id="clip0_0_1">
<rect width="146" height="107" fill="white"/>
</clipPath>
</defs>
</svg>
